<?xml version="1.0" standalone="no"?>
<!DOCTYPE svg PUBLIC "-//W3C//DTD SVG 20010904//EN"
 "http://www.w3.org/TR/2001/REC-SVG-20010904/DTD/svg10.dtd">
<svg version="1.0" xmlns="http://www.w3.org/2000/svg"
 width="24.000000pt" height="24.000000pt" viewBox="0 0 24.000000 24.000000"
 preserveAspectRatio="xMidYMid meet">

<g transform="translate(0.000000,24.000000) scale(0.100000,-0.100000)"
fill="#000000" stroke="none">
<path d="M62 178 c-7 -7 -12 -26 -12 -44 0 -17 -7 -37 -15 -44 -40 -33 16 -88
89 -88 69 0 120 56 81 88 -8 7 -15 27 -15 44 0 18 -5 37 -12 44 -16 16 -100
16 -116 0z m106 -50 c2 -20 10 -42 18 -48 18 -16 18 -34 0 -27 -8 3 -16 -2
-19 -12 -3 -14 -13 -17 -43 -15 -55 3 -54 3 -54 19 0 9 -6 12 -15 9 -19 -8
-19 10 0 26 8 7 15 27 15 45 0 41 6 47 55 43 38 -3 40 -5 43 -40z"/>
<path d="M100 120 c0 -5 5 -10 10 -10 6 0 10 5 10 10 0 6 -4 10 -10 10 -5 0
-10 -4 -10 -10z"/>
<path d="M140 120 c0 -5 5 -10 10 -10 6 0 10 5 10 10 0 6 -4 10 -10 10 -5 0
-10 -4 -10 -10z"/>
</g>
</svg>
