<?xml version="1.0" standalone="no"?>
<!DOCTYPE svg PUBLIC "-//W3C//DTD SVG 20010904//EN"
 "http://www.w3.org/TR/2001/REC-SVG-20010904/DTD/svg10.dtd">
<svg version="1.0" xmlns="http://www.w3.org/2000/svg"
 width="24.000000pt" height="24.000000pt" viewBox="0 0 24.000000 24.000000"
 preserveAspectRatio="xMidYMid meet">

<g transform="translate(0.000000,24.000000) scale(0.100000,-0.100000)"
fill="#000000" stroke="none">
<path d="M62 178 c-7 -7 -12 -18 -12 -26 0 -8 -11 -23 -25 -34 -27 -21 -34
-69 -12 -85 16 -12 85 -31 117 -32 22 -1 44 6 90 29 8 4 16 21 18 37 2 23 -3
36 -22 51 -15 11 -26 26 -26 34 0 8 -5 19 -12 26 -16 16 -100 16 -116 0z m106
-38 c2 -15 12 -30 25 -35 26 -12 31 -60 7 -60 -8 0 -14 8 -14 18 3 29 -14 19
-18 -10 -3 -25 -7 -28 -38 -29 -50 0 -60 5 -60 32 0 13 -4 24 -9 24 -5 0 -8
-8 -7 -17 0 -10 -6 -18 -14 -18 -25 0 -19 48 8 60 13 6 22 19 22 31 0 30 9 35
55 32 34 -3 40 -6 43 -28z"/>
<path d="M100 120 c0 -5 5 -10 10 -10 6 0 10 5 10 10 0 6 -4 10 -10 10 -5 0
-10 -4 -10 -10z"/>
<path d="M140 120 c0 -5 5 -10 10 -10 6 0 10 5 10 10 0 6 -4 10 -10 10 -5 0
-10 -4 -10 -10z"/>
</g>
</svg>
